<?xml version="1.0" standalone="no"?>
<!DOCTYPE svg PUBLIC "-//W3C//DTD SVG 20010904//EN"
 "http://www.w3.org/TR/2001/REC-SVG-20010904/DTD/svg10.dtd">
<svg version="1.0" xmlns="http://www.w3.org/2000/svg"
 width="16.000000pt" height="16.000000pt" viewBox="0 0 16.000000 16.000000"
 preserveAspectRatio="xMidYMid meet">

<g transform="translate(0.000000,16.000000) scale(0.100000,-0.100000)"
fill="#000000" stroke="none">
<path d="M62 120 c-7 -11 -22 -20 -34 -20 -20 0 -20 -1 -5 -18 10 -10 17 -27
17 -38 0 -16 7 -19 40 -19 33 0 40 3 40 19 0 11 7 28 17 38 15 17 15 18 -5 18
-12 0 -27 9 -34 20 -7 11 -15 20 -18 20 -3 0 -11 -9 -18 -20z"/>
</g>
</svg>
